<mxfile host="app.diagrams.net" agent="Mozilla/5.0 (Windows NT 10.0; Win64; x64) AppleWebKit/537.36 (KHTML, like Gecko) Chrome/133.0.0.0 Safari/537.36" version="26.0.16">
  <diagram id="prtHgNgQTEPvFCAcTncT" name="Page-1">
    <mxGraphModel dx="988" dy="523" grid="1" gridSize="10" guides="1" tooltips="1" connect="1" arrows="1" fold="1" page="1" pageScale="1" pageWidth="827" pageHeight="1169" math="0" shadow="0">
      <root>
        <mxCell id="0" />
        <mxCell id="1" parent="0" />
        <mxCell id="dNxyNK7c78bLwvsdeMH5-19" value="来料检验" style="swimlane;html=1;childLayout=stackLayout;resizeParent=1;resizeParentMax=0;horizontal=0;startSize=20;horizontalStack=0;" parent="1" vertex="1">
          <mxGeometry x="40" y="40" width="730" height="360" as="geometry">
            <mxRectangle x="80" y="120" width="40" height="80" as="alternateBounds" />
          </mxGeometry>
        </mxCell>
        <mxCell id="dNxyNK7c78bLwvsdeMH5-27" value="" style="edgeStyle=orthogonalEdgeStyle;rounded=0;orthogonalLoop=1;jettySize=auto;html=1;endArrow=none;endFill=0;" parent="dNxyNK7c78bLwvsdeMH5-19" source="dNxyNK7c78bLwvsdeMH5-24" target="dNxyNK7c78bLwvsdeMH5-26" edge="1">
          <mxGeometry relative="1" as="geometry" />
        </mxCell>
        <mxCell id="dNxyNK7c78bLwvsdeMH5-31" style="edgeStyle=orthogonalEdgeStyle;rounded=0;orthogonalLoop=1;jettySize=auto;html=1;endArrow=classic;endFill=1;" parent="dNxyNK7c78bLwvsdeMH5-19" source="dNxyNK7c78bLwvsdeMH5-28" target="dNxyNK7c78bLwvsdeMH5-30" edge="1">
          <mxGeometry relative="1" as="geometry" />
        </mxCell>
        <mxCell id="RxCg0yuiQL5_BP5g-nQs-1" value="是" style="edgeLabel;html=1;align=center;verticalAlign=middle;resizable=0;points=[];" vertex="1" connectable="0" parent="dNxyNK7c78bLwvsdeMH5-31">
          <mxGeometry x="-0.3156" relative="1" as="geometry">
            <mxPoint y="14" as="offset" />
          </mxGeometry>
        </mxCell>
        <mxCell id="dNxyNK7c78bLwvsdeMH5-35" style="edgeStyle=orthogonalEdgeStyle;rounded=0;orthogonalLoop=1;jettySize=auto;html=1;endArrow=classic;endFill=1;" parent="dNxyNK7c78bLwvsdeMH5-19" source="dNxyNK7c78bLwvsdeMH5-28" target="dNxyNK7c78bLwvsdeMH5-34" edge="1">
          <mxGeometry relative="1" as="geometry" />
        </mxCell>
        <mxCell id="RxCg0yuiQL5_BP5g-nQs-2" value="否" style="edgeLabel;html=1;align=center;verticalAlign=middle;resizable=0;points=[];" vertex="1" connectable="0" parent="dNxyNK7c78bLwvsdeMH5-35">
          <mxGeometry x="-0.3381" relative="1" as="geometry">
            <mxPoint as="offset" />
          </mxGeometry>
        </mxCell>
        <mxCell id="dNxyNK7c78bLwvsdeMH5-20" value="仓库管理员" style="swimlane;html=1;startSize=20;horizontal=0;" parent="dNxyNK7c78bLwvsdeMH5-19" vertex="1">
          <mxGeometry x="20" width="710" height="120" as="geometry">
            <mxRectangle x="20" width="710" height="30" as="alternateBounds" />
          </mxGeometry>
        </mxCell>
        <mxCell id="dNxyNK7c78bLwvsdeMH5-25" value="" style="edgeStyle=orthogonalEdgeStyle;rounded=0;orthogonalLoop=1;jettySize=auto;html=1;" parent="dNxyNK7c78bLwvsdeMH5-20" source="dNxyNK7c78bLwvsdeMH5-23" target="dNxyNK7c78bLwvsdeMH5-24" edge="1">
          <mxGeometry relative="1" as="geometry" />
        </mxCell>
        <mxCell id="dNxyNK7c78bLwvsdeMH5-23" value="开始" style="ellipse;whiteSpace=wrap;html=1;fillColor=#000000;fontColor=#FFFFFF;" parent="dNxyNK7c78bLwvsdeMH5-20" vertex="1">
          <mxGeometry x="40" y="25" width="40" height="40" as="geometry" />
        </mxCell>
        <mxCell id="dNxyNK7c78bLwvsdeMH5-24" value="来料接收" style="rounded=0;whiteSpace=wrap;html=1;fontFamily=Helvetica;fontSize=12;fontColor=#000000;align=center;" parent="dNxyNK7c78bLwvsdeMH5-20" vertex="1">
          <mxGeometry x="120" y="30" width="80" height="30" as="geometry" />
        </mxCell>
        <mxCell id="dNxyNK7c78bLwvsdeMH5-33" value="" style="edgeStyle=orthogonalEdgeStyle;rounded=0;orthogonalLoop=1;jettySize=auto;html=1;endArrow=classic;endFill=1;" parent="dNxyNK7c78bLwvsdeMH5-20" source="dNxyNK7c78bLwvsdeMH5-30" target="dNxyNK7c78bLwvsdeMH5-32" edge="1">
          <mxGeometry relative="1" as="geometry" />
        </mxCell>
        <mxCell id="dNxyNK7c78bLwvsdeMH5-30" value="收货入库" style="rounded=0;whiteSpace=wrap;html=1;fontFamily=Helvetica;fontSize=12;fontColor=#000000;align=center;" parent="dNxyNK7c78bLwvsdeMH5-20" vertex="1">
          <mxGeometry x="240" y="30" width="80" height="30" as="geometry" />
        </mxCell>
        <mxCell id="dNxyNK7c78bLwvsdeMH5-32" value="结束" style="ellipse;whiteSpace=wrap;html=1;fillColor=#000000;fontColor=#FFFFFF;" parent="dNxyNK7c78bLwvsdeMH5-20" vertex="1">
          <mxGeometry x="590" y="25" width="40" height="40" as="geometry" />
        </mxCell>
        <mxCell id="RxCg0yuiQL5_BP5g-nQs-7" style="edgeStyle=orthogonalEdgeStyle;rounded=0;orthogonalLoop=1;jettySize=auto;html=1;entryX=0;entryY=0.5;entryDx=0;entryDy=0;" edge="1" parent="dNxyNK7c78bLwvsdeMH5-20" source="RxCg0yuiQL5_BP5g-nQs-5" target="dNxyNK7c78bLwvsdeMH5-32">
          <mxGeometry relative="1" as="geometry" />
        </mxCell>
        <mxCell id="RxCg0yuiQL5_BP5g-nQs-5" value="退货供应商" style="rounded=0;whiteSpace=wrap;html=1;fontFamily=Helvetica;fontSize=12;fontColor=#000000;align=center;" vertex="1" parent="dNxyNK7c78bLwvsdeMH5-20">
          <mxGeometry x="460" y="65" width="80" height="30" as="geometry" />
        </mxCell>
        <mxCell id="dNxyNK7c78bLwvsdeMH5-21" value="质检员" style="swimlane;html=1;startSize=20;horizontal=0;" parent="dNxyNK7c78bLwvsdeMH5-19" vertex="1">
          <mxGeometry x="20" y="120" width="710" height="120" as="geometry" />
        </mxCell>
        <mxCell id="dNxyNK7c78bLwvsdeMH5-29" value="" style="edgeStyle=orthogonalEdgeStyle;rounded=0;orthogonalLoop=1;jettySize=auto;html=1;endArrow=classic;endFill=1;" parent="dNxyNK7c78bLwvsdeMH5-21" source="dNxyNK7c78bLwvsdeMH5-26" target="dNxyNK7c78bLwvsdeMH5-28" edge="1">
          <mxGeometry relative="1" as="geometry" />
        </mxCell>
        <mxCell id="dNxyNK7c78bLwvsdeMH5-26" value="来料检验" style="rounded=0;whiteSpace=wrap;html=1;fontFamily=Helvetica;fontSize=12;fontColor=#000000;align=center;" parent="dNxyNK7c78bLwvsdeMH5-21" vertex="1">
          <mxGeometry x="120" y="45" width="80" height="30" as="geometry" />
        </mxCell>
        <mxCell id="dNxyNK7c78bLwvsdeMH5-28" value="合格" style="rhombus;whiteSpace=wrap;html=1;fontFamily=Helvetica;fontSize=8;fontColor=#000000;align=center;" parent="dNxyNK7c78bLwvsdeMH5-21" vertex="1">
          <mxGeometry x="260" y="40" width="40" height="40" as="geometry" />
        </mxCell>
        <mxCell id="dNxyNK7c78bLwvsdeMH5-22" value="质检主管" style="swimlane;html=1;startSize=20;horizontal=0;" parent="dNxyNK7c78bLwvsdeMH5-19" vertex="1">
          <mxGeometry x="20" y="240" width="710" height="120" as="geometry" />
        </mxCell>
        <mxCell id="dNxyNK7c78bLwvsdeMH5-37" value="" style="edgeStyle=orthogonalEdgeStyle;rounded=0;orthogonalLoop=1;jettySize=auto;html=1;endArrow=classic;endFill=1;" parent="dNxyNK7c78bLwvsdeMH5-22" source="dNxyNK7c78bLwvsdeMH5-34" target="dNxyNK7c78bLwvsdeMH5-36" edge="1">
          <mxGeometry relative="1" as="geometry" />
        </mxCell>
        <mxCell id="dNxyNK7c78bLwvsdeMH5-34" value="不合格审批" style="rounded=0;whiteSpace=wrap;html=1;fontFamily=Helvetica;fontSize=12;fontColor=#000000;align=center;" parent="dNxyNK7c78bLwvsdeMH5-22" vertex="1">
          <mxGeometry x="240" y="45" width="80" height="30" as="geometry" />
        </mxCell>
        <mxCell id="dNxyNK7c78bLwvsdeMH5-36" value="让步接收" style="rhombus;whiteSpace=wrap;html=1;fontFamily=Helvetica;fontSize=8;fontColor=#000000;align=center;" parent="dNxyNK7c78bLwvsdeMH5-22" vertex="1">
          <mxGeometry x="400" y="40" width="40" height="40" as="geometry" />
        </mxCell>
        <mxCell id="RxCg0yuiQL5_BP5g-nQs-3" style="edgeStyle=orthogonalEdgeStyle;rounded=0;orthogonalLoop=1;jettySize=auto;html=1;exitX=0.5;exitY=0;exitDx=0;exitDy=0;entryX=0.5;entryY=1;entryDx=0;entryDy=0;" edge="1" parent="dNxyNK7c78bLwvsdeMH5-19" source="dNxyNK7c78bLwvsdeMH5-36" target="dNxyNK7c78bLwvsdeMH5-30">
          <mxGeometry relative="1" as="geometry">
            <mxPoint x="400" y="100" as="targetPoint" />
            <Array as="points">
              <mxPoint x="440" y="90" />
              <mxPoint x="300" y="90" />
            </Array>
          </mxGeometry>
        </mxCell>
        <mxCell id="RxCg0yuiQL5_BP5g-nQs-4" value="是" style="edgeLabel;html=1;align=center;verticalAlign=middle;resizable=0;points=[];" vertex="1" connectable="0" parent="RxCg0yuiQL5_BP5g-nQs-3">
          <mxGeometry x="-0.7504" y="1" relative="1" as="geometry">
            <mxPoint as="offset" />
          </mxGeometry>
        </mxCell>
        <mxCell id="RxCg0yuiQL5_BP5g-nQs-6" style="edgeStyle=orthogonalEdgeStyle;rounded=0;orthogonalLoop=1;jettySize=auto;html=1;exitX=1;exitY=0.5;exitDx=0;exitDy=0;" edge="1" parent="dNxyNK7c78bLwvsdeMH5-19" source="dNxyNK7c78bLwvsdeMH5-36" target="RxCg0yuiQL5_BP5g-nQs-5">
          <mxGeometry relative="1" as="geometry" />
        </mxCell>
      </root>
    </mxGraphModel>
  </diagram>
</mxfile>
